<?xml version="1.0" encoding="utf-8"?>
<!-- Generator: Adobe Illustrator 27.5.0, SVG Export Plug-In . SVG Version: 6.00 Build 0)  -->
<svg version="1.1" xmlns="http://www.w3.org/2000/svg" xmlns:xlink="http://www.w3.org/1999/xlink" x="0px" y="0px"
	 viewBox="0 0 500 500" style="enable-background:new 0 0 500 500;" xml:space="preserve">
<g id="Floor">
	<path id="Floor_1_" style="fill:#FAFAFA;" d="M102.815,420.023c88.569,39.181,232.168,39.182,320.736,0.001
		c88.569-39.182,88.569-102.707,0-141.888c-88.569-39.182-232.168-39.182-320.737-0.001
		C14.246,317.316,14.246,380.842,102.815,420.023z"/>
</g>
<g id="Shadow">
	<path id="Shadow_2_" style="fill:#EBEBEB;" d="M67.99,340.151c14.807,7.058,38.814,7.058,53.621,0
		c14.808-7.056,14.808-18.499,0-25.557c-14.807-7.056-38.814-7.056-53.621,0C53.183,321.652,53.183,333.095,67.99,340.151z"/>
	<path id="Shadow_1_" style="fill:#EBEBEB;" d="M445.47,369.935c-15.449,7.364-40.496,7.364-55.945,0
		c-15.449-7.362-15.449-19.3,0-26.664c15.449-7.362,40.496-7.362,55.945,0C460.919,350.635,460.919,362.573,445.47,369.935z"/>
</g>
<g id="Plants">
	<g id="Plants_3_">
		<g id="XMLID_2129_">
			<g id="XMLID_2124_">
				<g id="XMLID_2127_">
					<path id="XMLID_2131_" style="fill:#27DEBF;" d="M178.06,264.78c-0.606-6.938-6.88-20.871-14.867-29.251
						c-7.987-8.38-19.882-13.978-27.683-10.525c-7.265,3.216-5.596,12.971,4.06,18.687c9.656,5.717,24.029,12.702,29.008,23.608
						l9.591,13.076L178.06,264.78z"/>
					<path id="XMLID_2130_" style="opacity:0.1;" d="M178.06,264.78c-0.606-6.938-6.88-20.871-14.867-29.251
						c-7.987-8.38-19.882-13.978-27.683-10.525c-7.265,3.216-5.596,12.971,4.06,18.687c9.656,5.717,24.029,12.702,29.008,23.608
						l9.591,13.076L178.06,264.78z"/>
				</g>
				<g id="XMLID_2125_">
					<path id="XMLID_2621_" style="fill:#FFFFFF;" d="M179.402,274.23c-0.223,0.001-0.428-0.145-0.492-0.368
						c-6.715-23.279-27.557-40.856-39.397-44.108c-0.271-0.074-0.43-0.355-0.356-0.625c0.074-0.27,0.348-0.434,0.626-0.356
						c12.065,3.313,33.288,21.175,40.105,44.807c0.078,0.27-0.078,0.551-0.347,0.629C179.493,274.223,179.447,274.23,179.402,274.23
						z"/>
				</g>
			</g>
			<g id="XMLID_2122_">
				<g id="XMLID_2123_">
					<path id="XMLID_2126_" style="fill:#27DEBF;" d="M177.194,289.699c-1.455-3.803-6.782-9.823-14.951-14.466
						c-9.037-5.136-20.06-6.898-22.947-11.259c-3.468-5.238,0.714-10.838,9.564-10.518c8.85,0.321,25.288,10.922,29.32,28.692
						L177.194,289.699z"/>
				</g>
				<g id="XMLID_2128_">
					<path id="XMLID_2620_" style="fill:#FFFFFF;" d="M178.531,285.458c-0.194,0.001-0.379-0.109-0.466-0.297
						c-9.036-19.656-25.139-25.425-32.391-25.73c-0.281-0.011-0.499-0.249-0.487-0.53c0.012-0.282,0.238-0.499,0.53-0.487
						c8.019,0.336,24.05,6.258,33.273,26.321c0.117,0.255,0.005,0.558-0.25,0.675C178.672,285.443,178.601,285.458,178.531,285.458z
						"/>
				</g>
			</g>
		</g>
	</g>
</g>
<g id="Chart">
	<g id="Graphic_2_">
		<g id="XMLID_117_">
			<path id="XMLID_119_" style="fill:#E0E0E0;" d="M354.806,312.299v-31.58l-193.784,0v31.645l0,0
				c0,14.316,9.46,28.633,28.38,39.556c37.839,21.846,99.188,21.846,137.027,0C345.376,340.981,354.835,326.637,354.806,312.299z"/>
			<path id="XMLID_118_" style="fill:#F0F0F0;" d="M326.428,320.278c-37.839,21.84-99.186,21.84-137.025,0
				c-37.839-21.85-37.839-57.27,0-79.12c14.297-8.257,31.957-13.389,50.436-15.406c1.397-0.152,2.699,0.741,3.083,2.093
				l14.989,52.878l92.917-9.634c1.442-0.15,2.79,0.788,3.117,2.2C357.807,289.973,348.632,307.463,326.428,320.278z"/>
		</g>
		<g id="XMLID_113_">
			<path id="XMLID_116_" style="fill:#27DEBF;" d="M360.149,224.592c-3.933-9.877-12.566-19.25-25.889-26.949
				c-22.18-12.797-52.43-18.102-81.289-15.898c-1.592,0.122-2.881,1.54-2.881,3.137l-0.003,25.866c0,1.597,0.353,4.137,0.788,5.673
				l14.078,49.646c0.436,1.536,2.077,2.648,3.665,2.484l89.627-9.283c1.588-0.165,2.876-1.592,2.875-3.189l-0.008-25.869
				C361.112,228.613,360.74,226.076,360.149,224.592z"/>
			<path id="XMLID_115_" style="opacity:0.3;fill:#FFFFFF;" d="M360.85,227.346l-95.107,9.862l-15.254-53.811
				c0.313-0.729,1.312-1.561,2.479-1.652c28.86-2.205,59.111,3.1,81.292,15.898c13.323,7.699,21.954,17.071,25.888,26.947
				C360.509,225.495,360.674,226.414,360.85,227.346z"/>
			<path id="XMLID_114_" style="opacity:0.1;" d="M250.09,184.882l-0.003,25.866c0,1.597,0.353,4.137,0.788,5.673l14.078,49.647
				c0.144,0.507,0.427,0.961,0.789,1.345v-30.205l-15.253-53.808C250.242,183.848,250.09,184.352,250.09,184.882z"/>
		</g>
		<g id="People_2_">
			<g id="XMLID_106_">
				<path id="XMLID_112_" style="fill:#263238;" d="M287.501,189.087l-0.29-2.025c0.233-0.498,0.324-1.06,0.201-1.475l-0.794-2.665
					l-0.502-3.502l-0.495,0.157l0.074-4.315l-1.577-0.907c-0.201-0.115-0.447-0.115-0.648,0.001l-1.712,0.989l0,0l-3.082,1.779v0
					l-1.883,1.087c-0.214,0.124-0.367,0.331-0.42,0.573l-3.349,15.109c-0.141,0.634-0.007,1.145,0.302,1.329l0,0.001l1.778,1.021
					l2.095-8.636l0.052,3.57l-1.092,17.019c-0.036,0.555,0.132,0.953,0.416,1.114l0,0.003l0.023,0.013l0.003,0.001l1.753,1.007
					l1.501-14.124l-0.579-0.372l0.387-6.04l1.106-0.639l1.11,16.017c0.03,0.433,0.2,0.721,0.445,0.843v0.007l1.778,1.021
					l-0.064-2.31c0.169-0.402,0.262-0.837,0.235-1.228l-0.451-6.515l-0.126-4.513l-0.195-0.125l-0.319-4.605l0.105-7.275
					l2.132,7.158c0.061,0.205,0.169,0.341,0.302,0.421l0.001,0.008L287.501,189.087z"/>
				<g id="XMLID_110_">
					<path id="XMLID_111_" style="fill:#455A64;" d="M289.18,186.603l-3.324-11.157c-0.056-0.187-0.272-0.273-0.441-0.176
						l-1.887,1.09v0l-3.082,1.779l0,0l-1.883,1.087c-0.214,0.124-0.367,0.332-0.42,0.573l-3.349,15.109
						c-0.186,0.841,0.108,1.466,0.658,1.397c0.55-0.069,1.147-0.807,1.333-1.648l1.865-8.413c0.037-0.167,0.283-0.142,0.285,0.029
						l0.087,5.919l-1.092,17.019c-0.059,0.915,0.43,1.411,1.091,1.108c0.036-0.016,0.072-0.035,0.107-0.056
						c0.615-0.355,1.14-1.286,1.196-2.151l1.11-17.298l1.106-0.639l1.11,16.017c0.056,0.801,0.58,1.126,1.196,0.77
						c0.035-0.02,0.072-0.043,0.107-0.068c0.661-0.46,1.15-1.52,1.091-2.367l-1.092-15.758l0.091-6.333
						c0.002-0.165,0.236-0.198,0.283-0.039l1.863,6.254c0.186,0.626,0.783,0.674,1.333,0.108
						C289.072,188.195,289.366,187.229,289.18,186.603z"/>
				</g>
				<path id="XMLID_109_" style="fill:#263238;" d="M283.549,169.286l-1.802-1.018l0,0c-0.411-0.236-0.941-0.227-1.529,0.112
					c-1.293,0.746-2.34,2.739-2.34,4.451c0,0.914,0.304,1.551,0.779,1.844l0,0l1.82,1.059L283.549,169.286z"/>
				<path id="XMLID_108_" style="fill:#263238;" d="M277.878,172.831c0,0.914,0.304,1.551,0.779,1.844l0,0l1.82,1.059l0.997-2.093
					l-3.441-1.981C277.937,172.054,277.878,172.45,277.878,172.831z"/>
				<path id="XMLID_107_" style="fill:#455A64;" d="M281.987,175.596c1.293-0.746,2.34-2.739,2.34-4.451
					c0-1.712-1.048-2.495-2.34-1.749c-1.293,0.746-2.34,2.739-2.34,4.451C279.646,175.559,280.694,176.342,281.987,175.596z"/>
			</g>
			<g id="XMLID_94_">
				<path id="XMLID_105_" style="fill:#263238;" d="M307.297,206.684l-0.29-2.025c0.233-0.498,0.324-1.06,0.201-1.475l-0.794-2.665
					l-0.502-3.502l-0.495,0.157l0.074-4.315l-1.577-0.907c-0.201-0.115-0.447-0.115-0.648,0.001l-1.712,0.989l0,0l-3.082,1.779v0
					l-1.883,1.087c-0.214,0.124-0.367,0.332-0.42,0.573l-3.349,15.109c-0.141,0.634-0.007,1.145,0.303,1.329l0,0.001l1.778,1.021
					l2.095-8.636l0.052,3.57l-1.092,17.019c-0.036,0.555,0.132,0.953,0.416,1.115l-0.001,0.003l0.023,0.013l0.003,0.001l1.753,1.007
					l1.501-14.125l-0.579-0.372l0.388-6.04l1.106-0.639l1.11,16.017c0.03,0.433,0.2,0.721,0.445,0.843v0.007l1.778,1.021
					l-0.064-2.31c0.169-0.402,0.262-0.837,0.235-1.228l-0.451-6.515l-0.126-4.513l-0.195-0.126l-0.319-4.605l0.105-7.275
					l2.132,7.157c0.061,0.205,0.169,0.342,0.302,0.421l0.001,0.008L307.297,206.684z"/>
				<g id="XMLID_99_">
					<path id="XMLID_104_" style="fill:#455A64;" d="M308.976,204.2l-3.324-11.156c-0.056-0.187-0.272-0.273-0.441-0.176
						l-1.887,1.09v0l-3.082,1.779l0,0l-1.883,1.087c-0.214,0.124-0.367,0.331-0.42,0.573l-3.349,15.109
						c-0.186,0.841,0.108,1.467,0.658,1.398c0.55-0.069,1.147-0.807,1.333-1.648l1.865-8.413c0.037-0.167,0.283-0.142,0.285,0.029
						l0.087,5.919l-1.092,17.019c-0.059,0.915,0.43,1.411,1.091,1.108c0.036-0.016,0.072-0.035,0.107-0.056
						c0.616-0.355,1.14-1.286,1.196-2.151l1.11-17.298l1.106-0.639l1.11,16.017c0.056,0.801,0.58,1.126,1.196,0.77
						c0.035-0.02,0.072-0.043,0.107-0.068c0.661-0.46,1.15-1.52,1.091-2.367l-1.092-15.758l0.091-6.333
						c0.002-0.165,0.235-0.198,0.283-0.039l1.863,6.254c0.186,0.626,0.783,0.674,1.333,0.108
						C308.867,205.791,309.162,204.825,308.976,204.2z"/>
				</g>
				<path id="XMLID_97_" style="fill:#263238;" d="M303.344,186.883l-1.802-1.018l0,0c-0.411-0.236-0.941-0.227-1.529,0.113
					c-1.293,0.746-2.341,2.739-2.341,4.451c0,0.914,0.304,1.551,0.779,1.844l0,0l1.82,1.06L303.344,186.883z"/>
				<path id="XMLID_96_" style="fill:#263238;" d="M297.673,190.428c0,0.914,0.304,1.551,0.779,1.844l0,0l1.82,1.06l0.997-2.093
					l-3.441-1.981C297.733,189.651,297.673,190.046,297.673,190.428z"/>
				<path id="XMLID_95_" style="fill:#455A64;" d="M301.782,193.193c1.293-0.746,2.34-2.739,2.34-4.451
					c0-1.712-1.048-2.495-2.34-1.749c-1.293,0.746-2.34,2.739-2.34,4.451C299.442,193.156,300.49,193.939,301.782,193.193z"/>
			</g>
			<g id="XMLID_83_">
				<path id="XMLID_93_" style="fill:#263238;" d="M332.798,198.452l-0.29-2.025c0.233-0.498,0.324-1.06,0.201-1.475l-0.794-2.665
					l-0.502-3.502l-0.495,0.157l0.074-4.315l-1.577-0.907c-0.201-0.115-0.447-0.115-0.648,0.001l-1.712,0.989l0,0l-3.082,1.779v0
					l-1.883,1.087c-0.214,0.124-0.367,0.331-0.42,0.573l-3.349,15.109c-0.141,0.634-0.007,1.145,0.302,1.329l0,0.001l1.778,1.021
					l2.095-8.636l0.052,3.57l-1.092,17.019c-0.036,0.555,0.132,0.953,0.416,1.115l0,0.003l0.023,0.013l0.002,0.002l1.753,1.007
					l1.501-14.125l-0.579-0.372l0.387-6.04l1.106-0.639l1.11,16.017c0.03,0.433,0.2,0.721,0.445,0.844v0.007l1.778,1.021
					l-0.064-2.31c0.169-0.402,0.262-0.837,0.235-1.228l-0.451-6.515l-0.126-4.513l-0.195-0.126l-0.319-4.604l0.105-7.275
					l2.132,7.157c0.061,0.205,0.169,0.342,0.302,0.421l0.001,0.008L332.798,198.452z"/>
				<g id="XMLID_88_">
					<path id="XMLID_89_" style="fill:#455A64;" d="M334.477,195.968l-3.324-11.156c-0.056-0.187-0.272-0.273-0.441-0.176
						l-1.887,1.09v0l-3.082,1.779l0,0l-1.883,1.087c-0.214,0.124-0.367,0.332-0.42,0.573l-3.349,15.109
						c-0.186,0.841,0.108,1.466,0.658,1.397c0.55-0.069,1.147-0.807,1.333-1.648l1.865-8.413c0.037-0.167,0.283-0.142,0.285,0.029
						l0.087,5.919l-1.092,17.019c-0.059,0.915,0.43,1.411,1.091,1.108c0.036-0.016,0.072-0.035,0.107-0.056
						c0.616-0.355,1.14-1.286,1.196-2.151l1.11-17.298l1.106-0.639l1.11,16.017c0.056,0.801,0.58,1.126,1.196,0.77
						c0.035-0.02,0.072-0.043,0.107-0.068c0.661-0.46,1.15-1.52,1.091-2.367l-1.092-15.758l0.091-6.332
						c0.002-0.165,0.236-0.198,0.283-0.039l1.863,6.254c0.186,0.626,0.783,0.674,1.333,0.108
						C334.368,197.559,334.663,196.593,334.477,195.968z"/>
				</g>
				<path id="XMLID_87_" style="fill:#263238;" d="M328.845,178.651l-1.802-1.018l0,0c-0.411-0.236-0.941-0.227-1.529,0.113
					c-1.293,0.746-2.34,2.739-2.34,4.451c0,0.914,0.304,1.551,0.779,1.844l0,0l1.82,1.059L328.845,178.651z"/>
				<path id="XMLID_86_" style="fill:#263238;" d="M323.174,182.196c0,0.914,0.304,1.551,0.779,1.844l0,0l1.82,1.059l0.997-2.093
					l-3.441-1.981C323.233,181.419,323.174,181.814,323.174,182.196z"/>
				<path id="XMLID_85_" style="fill:#455A64;" d="M327.283,184.961c1.292-0.746,2.34-2.739,2.34-4.451
					c0-1.712-1.048-2.495-2.34-1.749c-1.293,0.746-2.34,2.739-2.34,4.451C324.943,184.924,325.991,185.707,327.283,184.961z"/>
			</g>
		</g>
	</g>
</g>
<g id="Character_2">
	<g>
		<g>
			<rect id="XMLID_61_" x="433.396" y="343.801" style="fill:#FFA8A7;" width="7.615" height="11.09"/>
			
				<rect id="XMLID_59_" x="406.805" y="330.203" transform="matrix(0.9994 -0.0344 0.0344 0.9994 -11.2955 14.309)" style="fill:#FFA8A7;" width="7.615" height="11.09"/>
			<path id="XMLID_55_" style="fill:#37474F;" d="M440.512,235.541c0,7.272,0.94,54.314,0.94,54.314
				c0.178,2.092,2.139,5.95,1.715,13.987c-0.577,10.917-1.52,41.245-1.52,41.245s-3.571,3.54-8.612,0c0,0-6.895-41.208-8.26-52.027
				c-1.191-9.442-3.211-35.093-3.211-35.093l-7.056,30.194c0,0,1.242,7.098,1.515,12.107c0.273,5.01-1.293,33.944-1.293,33.944
				s-3.871,2.675-8.286,0.316c0,0-6.118-42.275-6.903-46.8c-0.786-4.525,5.355-52.188,5.355-52.188H440.512z"/>
			<path id="XMLID_5_" style="fill:#263238;" d="M433.396,351.132v-1.089c-0.729,0.318-2.422,6.777-5.443,9.533
				c-2.402,2.191-5.679,4.721-6.512,7.164c-0.867,2.54,4.563,3.943,6.807,3.546c2.608-0.462,7.127-2.298,8.262-4
				c1.135-1.702,1.666-4.213,2.588-5.46c0.922-1.247,3.047-2.64,3.546-4.084c0.274-0.793-0.051-2.53-0.436-3.997
				c-0.353-1.347-0.735-2.827-1.195-2.701c-0.001,0.164,0,0.83,0,0.83c-0.553,0.613-2.082,1.221-3.807,1.287
				C436.09,352.203,433.387,351.982,433.396,351.132z"/>
			<path id="XMLID_3_" style="fill:#263238;" d="M406.917,339.072c-0.395,0.014-0.717,0.572-1.59,1.516
				c-1.054,1.141-2.778,2.372-4.48,3.223c-2.852,1.427-8.395,3.623-10.905,4.754c-1.567,0.706-1.494,2.599,0.126,3.677
				c1.62,1.077,5.532,1.854,10.229,0.803c2.559-0.572,5.89-2.935,7.998-2.808c2.108,0.127,6.053,0.097,7.61-0.975
				c1.556-1.073,0.934-3.364,0.494-5.332c-0.48-2.148-1.167-5.436-1.878-5.289l0.023,0.676c-0.916,1.387-5.577,1.953-7.588,0.932
				L406.917,339.072z"/>
		</g>
		<g>
			<path id="XMLID_63_" style="fill:#FFA8A7;" d="M460.66,228.421c-0.175-0.96-4.916-11.976-6.866-16.313l-9.864,4.619l3.776,8.654
				l10.223,7.9C461.065,232.297,460.835,229.382,460.66,228.421z"/>
			<g>
				<path id="XMLID_57_" style="fill:#27DEBF;" d="M416.1,184.943c-4.71,0.374-9.407,1.669-13.617,7.921
					c-4.21,6.252-11.579,16.952-11.579,16.952l13.873,4.403L416.1,184.943z"/>
				<path id="XMLID_156_" style="opacity:0.1;" d="M416.1,184.943c-4.71,0.374-9.407,1.669-13.617,7.921
					c-4.21,6.252-11.579,16.952-11.579,16.952l13.873,4.403L416.1,184.943z"/>
			</g>
			<path id="XMLID_53_" style="fill:#27DEBF;" d="M429.048,185.178c6.828,1.644,15.493,4.401,18.525,10.694
				s7.714,16.493,7.714,16.493l-11.306,6.682l-3.471-6.04v22.534c-5.34,5.809-23.957,8.516-35.618,0c0,0,0-31.19,0-37.121
				c0-5.932,3.296-13.058,12.396-13.586L429.048,185.178z"/>
			<path id="XMLID_51_" style="opacity:0.1;" d="M440.512,213.007c0,0-3.423-5.941-4.167-7.371l4.167,10.152V213.007z"/>
		</g>
		<g>
			<g id="XMLID_38_">
				<g id="XMLID_49_">
					<path id="XMLID_50_" style="fill:#263238;" d="M431.612,154.82c0,0,1.887-0.323,3.358,1.181
						c1.442,1.475,1.143,4.204-0.002,10.477l-4.457,0.512L431.612,154.82z"/>
				</g>
				<g id="XMLID_47_">
					<path id="XMLID_48_" style="fill:#263238;" d="M405.625,153.006c0,0-1.801,0.001-2.789-0.566
						c-1.368-0.786-1.725,0.769-0.975,2.12c0.75,1.351,2.15,3.111,5.171,3.444c0.04-0.194,1.279-3.481,1.279-3.481L405.625,153.006z
						"/>
				</g>
				<g id="XMLID_45_">
					<path id="XMLID_46_" style="fill:#FFA8A7;" d="M429.521,166.993c0.662,0.395,1.606-0.876,2.422-1.73
						c0.816-0.854,3.48-2.02,4.809,0.78c1.354,2.854-1.72,6.648-3.525,7.902c-2.145,1.49-3.705,0.321-3.705,0.321l-0.472,10.912
						c0,0-2.367,5.79-8.775,6.659c-6.408,0.869-5.089-4.414-2.984-7.004l0.01-3.968c0,0-3.31,0.666-4.872,0.25
						c-0.836-0.223-2.829-2.633-4.116-5.33c-1.445-3.028-3.848-8.404-1.709-17.496c2.298-9.767,12.791-10.065,19.047-6.127
						S429.521,166.993,429.521,166.993z"/>
				</g>
				<g id="XMLID_43_">
					<path id="XMLID_44_" style="fill:#263238;" d="M429.521,168.106c0.333,0.006,1.598-2.094,2.422-2.843
						c1.141-1.038-0.331-10.443-0.331-10.443s1.154-3.567-1.101-5.933c-2.256-2.365-6.627-1.966-9.823-2.081
						c-3.326-0.12-6.886-0.321-11.426-2.293c-4.54-1.972-4.879-2.205-5.442-0.212c-0.564,1.994-0.775,6.559,1.934,9.619l2.254,0.828
						c0,0,1.217,1.08,5.451,1.595c4.234,0.516,10.828-0.099,11.73-0.222c1.228-0.168,1.49,1.022,2.152,4.273
						C427.92,163.248,428.402,168.084,429.521,168.106z"/>
				</g>
				<g id="XMLID_41_">
					<path id="XMLID_42_" style="fill:#263238;" d="M431.605,155.551l4.001-2.148c-0.568-1.146-1.924-1.595-3.029-1.002
						C431.473,152.995,431.037,154.405,431.605,155.551z"/>
				</g>
				<g id="XMLID_39_">
					<path id="XMLID_40_" style="fill:#F28F8F;" d="M417.299,180.865c0,0,5.933-1.195,8.008-2.298
						c1.388-0.738,2.531-2.017,2.867-2.837c0,0-0.388,1.76-1.629,3.346c-1.517,1.939-9.246,3.367-9.246,3.367L417.299,180.865z"/>
				</g>
			</g>
			<g id="XMLID_25_">
				<g id="XMLID_36_">
					<path id="XMLID_37_" style="fill:#263238;" d="M418.725,165.509c0,0.682,0.532,1.234,1.189,1.232
						c0.657-0.002,1.189-0.556,1.189-1.239c0-0.682-0.532-1.234-1.189-1.232C419.258,164.272,418.725,164.827,418.725,165.509z"/>
				</g>
				<g id="XMLID_34_">
					<path id="XMLID_35_" style="fill:#263238;" d="M419.986,161.02l2.544,1.404c0.375-0.731,0.11-1.637-0.593-2.025
						C421.235,160.011,420.361,160.289,419.986,161.02z"/>
				</g>
				<g id="XMLID_32_">
					<path id="XMLID_33_" style="fill:#F28F8F;" d="M418.815,173.571l-2.714,1.018c0.269,0.778,1.094,1.181,1.844,0.9
						C418.693,175.208,419.083,174.349,418.815,173.571z"/>
				</g>
				<g id="XMLID_30_">
					<path id="XMLID_31_" style="fill:#263238;" d="M408.123,162.01l2.319-1.786c-0.473-0.664-1.376-0.803-2.016-0.309
						C407.785,160.408,407.65,161.346,408.123,162.01z"/>
				</g>
				<g id="XMLID_28_">
					<path id="XMLID_29_" style="fill:#263238;" d="M408.837,165.171c0,0.682,0.532,1.234,1.189,1.232s1.189-0.556,1.189-1.239
						c0-0.682-0.532-1.234-1.189-1.232S408.837,164.488,408.837,165.171z"/>
				</g>
				<g id="XMLID_26_">
					<polygon id="XMLID_27_" style="fill:#F28F8F;" points="414.894,164.043 414.504,171.193 410.771,169.921 					"/>
				</g>
			</g>
		</g>
		<g>
			<polygon id="XMLID_23_" style="fill:#EBEBEB;" points="383.822,207.122 414.24,215.133 423.219,252.883 394.3,244.484 			"/>
			<path id="XMLID_21_" style="fill:#E0E0E0;" d="M397.084,232.101c-0.282,0.771-1.947,2.911-5.488,2.742l-0.438-1.561
				L397.084,232.101z"/>
			<path id="XMLID_19_" style="fill:#E0E0E0;" d="M403.882,233.282c0.134,1.006,2.203,2.87,5.699,4.035
				c3.978,1.326,10.084,0.625,10.084,0.625l-0.547-1.878L403.882,233.282z"/>
			<path id="XMLID_17_" style="fill:#E0E0E0;" d="M392.728,212.589c0,0-0.112-0.52-0.251-1.16c-0.139-0.641,1.646-0.668,3.987-0.061
				l4.482,1.162c2.341,0.607,4.35,1.618,4.489,2.259l0.251,1.16L392.728,212.589z"/>
			<path style="fill:#37474F;" d="M401.9,212.979c-0.014-0.067-0.028-0.133-0.038-0.186c-0.104-0.542,0.123-0.869,1.152-0.618
				l3.44,0.906l-0.224-0.722c-0.124-0.399-1.072-0.963-2.119-1.26c-1.046-0.297-1.895-0.538-1.895-0.538s-0.861-2.849-4.799-3.726
				c-3.938-0.877-3.409,1.632-3.409,1.632l-1.775-0.49c-0.98-0.271-1.703-0.166-1.615,0.235c0.088,0.4,0.167,0.744,0.167,0.744
				l3.064,0.807c0.68,0.237,1.024,0.536,1.174,1.227c0.017,0.078,0.031,0.151,0.047,0.226c-1.713-0.308-2.897-0.202-2.783,0.322
				c0.139,0.641,0.251,1.16,0.251,1.16l12.957,3.36l-0.251-1.16C405.13,214.365,403.716,213.579,401.9,212.979z"/>
		</g>
		<path id="XMLID_9_" style="fill:#FFA8A7;" d="M457.929,233.282l-10.223-7.9c0,0-20.608,3.353-23.028,3.543
			c-2.42,0.19-5.107-1.519-6.03-3.894c-0.923-2.376-2.548-2.08-2.548-2.08s0.716,3.011,0.945,3.972
			c0.229,0.962-5.571,1.751-8.788,0.662c-3.217-1.089-7.873,0.492-4.989,4.872c2.885,4.38,8.493,4.885,12.39,4.888
			c1.078,0.001,2.991-0.081,4.872-0.326c1.261-0.164,2.515-0.291,3.783-0.381C432.289,236.07,454.304,234.42,457.929,233.282z"/>
		<path id="XMLID_7_" style="fill:#FFA8A7;" d="M386.917,218.158c0,0,1.09,3.886,1.35,4.814c0.26,0.928,3.797,2.612,6.033,3.226
			c2.236,0.614,4.681,1.342,3.623,4.468c-0.976,2.883-4.655,3.541-6.528,3.459c-1.873-0.081-4.438-1.872-5.448-4.758
			c-1.289-3.682-0.594-7.614-1.106-9.764C384.329,217.454,385.797,216.876,386.917,218.158z"/>
	</g>
</g>
<g id="Character_1">
	<g>
		<path id="XMLID_152_" style="fill:#263238;" d="M114.197,165.135H78.894v-38.113c0-8.262,6.698-14.96,14.96-14.96h5.382
			c8.262,0,14.96,6.698,14.96,14.96V165.135z"/>
		<g>
			<path id="XMLID_146_" style="fill:#263238;" d="M114.712,320.259c2.049,2.244,4.309,4.041,6.735,5.858
				c0.363,0.272,0.739,0.559,0.936,0.967c0.318,0.66,0.811,2.295-2.201,3.346c-2.942,1.027-6.612,0.786-9.292-0.892
				c-2.474-1.548-2.584-4.769-4.917-6.605c-1.729-1.361-3.889-1.71-5.286-3.488c-0.973-1.238-0.72-2.886-0.212-4.925
				c0.554-2.226,0.809-3.911,1.546-3.74l-0.121,1.024c0.919,1.467,5.685,1.901,7.806,0.888
				C109.704,312.692,113.375,318.795,114.712,320.259z"/>
			<path id="XMLID_144_" style="fill:#FFA8A7;" d="M116.801,322.341c0-0.003,0-0.013,0-0.016c-0.716-0.656-1.418-1.333-2.09-2.068
				c-0.861-0.943-2.694-3.812-3.889-5.733c-0.727-1.168-1.256-2.564-1.089-4.103c0.166-1.539,0.593-5.488,0.593-5.488l-7.551-0.534
				l-0.878,7.404v-0.001c-0.182,1.678,1.204,3.168,3.661,5.285c2.457,2.117,5.578,7.055,7.802,8.297
				c2.224,1.242,3.815,1.196,4.764,0.561C119.101,325.291,119.197,324.789,116.801,322.341z"/>
			<path id="XMLID_142_" style="fill:#263238;" d="M85.998,320.934v-1.135c0.447,1.331,2.523,7.062,5.672,9.933
				c2.503,2.283,5.918,4.92,6.786,7.465c0.903,2.647-4.752,3.537-7.09,3.123c-2.717-0.481-6.233-2.023-8.146-4.374
				c-1.345-1.653-2.202-3.612-3.163-4.912c-0.961-1.3-3.175-2.751-3.695-4.255c-0.285-0.827,0.053-2.636,0.454-4.166
				c0.368-1.403,0.767-2.946,1.246-2.814c0.001,0.171,0,0.865,0,0.865c0.576,0.638,2.17,1.272,3.967,1.341
				C83.191,322.049,86.008,321.819,85.998,320.934z"/>
			<path id="XMLID_140_" style="fill:#FFA8A7;" d="M93.936,331.74c-0.776-0.693-1.557-1.37-2.266-2.016
				c-2.2-2.007-3.876-5.41-4.84-7.732c-0.55-1.326-0.832-2.741-0.832-4.176v-4.523h-7.935v7.362v0v0.001v0.196l0.04,0.02
				c0.382,1.649,4.023,6.036,6.093,8.895c1.387,1.918,4.022,4.357,7.171,4.777C94.35,334.944,95.875,334.003,93.936,331.74z"/>
			<path id="XMLID_138_" style="fill:#37474F;" d="M79.642,197.609c-6.152,13.437,0.222,60.769,0.222,60.769
				c-0.185,2.18-2.678,6.471-3.607,16.068c-1.097,11.339,1.722,39.811,1.722,39.811s3.674,2.403,8.02,0.319
				c0,0,7.563-42.881,8.985-54.155c1.241-9.839,3.623-32.966,3.623-32.966l6.77,32.913c0,0-2.596,5.664-3.003,9.863
				c-0.642,6.632,0.042,35.345,0.042,35.345s2.712,2.064,7.91,1.298c0,0,8.8-40.03,9.496-48.011
				c0.416-4.767-5.018-63.219-5.018-63.219L79.642,197.609z"/>
			<path id="XMLID_136_" style="fill:#263238;" d="M98.606,227.454l1.997-10.988c0,0,8.45-1.75,12.282-5.353
				c0,0-4.02,5.001-9.992,6.639l-2.243,9.609l3.922,29.093L98.606,227.454z"/>
		</g>
		<g>
			<path id="XMLID_154_" style="fill:#FFA8A7;" d="M69.614,191.767c0.063-0.881,1.714-10.29,2.851-15.552l11.06,3.39l-1.966,9.682
				l-9.319,7.479C69.322,196.186,69.551,192.648,69.614,191.767z"/>
			<polygon id="XMLID_150_" style="fill:#F28F8F;" points="123.108,171.932 128.336,181.516 120.203,188.487 112.754,176.676 			"/>
			<path id="XMLID_148_" style="fill:#EBEBEB;" d="M103.491,150.569c5.185,0.054,10.895,1.939,12.859,6.004
				c1.964,4.066,8.107,16.728,8.107,16.728s-4.583,6.709-11.852,6.237L103.491,150.569z"/>
			<path id="XMLID_134_" style="fill:#F5F5F5;" d="M90.493,150.928L90.493,150.928c-4.697,1.13-8.44,4.352-10.414,8.517
				c-1.503,3.171-1.519,6.849-0.373,10.166l5.496,15.9c0,0-2.573,6.22-5.561,12.098c13.793,7.698,31.016,3.651,35.163-1.966
				c0.175-1.192-0.063-6.563,0.272-12.674c0.357-6.517,1.252-13.875,0.227-17.903c-1.902-7.477-5.465-14.497-12.556-14.497
				L90.493,150.928z"/>
			<path id="XMLID_132_" style="fill:#F5F5F5;" d="M88.442,150.928c-4.707,0.666-11.618,1.614-14.002,12.803
				c-2.415,11.339-3.112,15.281-3.112,15.281s3.863,4.495,11.672,4.457l2.429-8.596L88.442,150.928z"/>
			<path id="XMLID_91_" style="fill:#EBEBEB;" d="M83.674,181.087c0,0,1.595-5.052,2.558-9.155c0,0,0.078,7.148-1.279,12.855
				L83.674,181.087z"/>
		</g>
		<g>
			<path id="XMLID_130_" style="fill:#263238;" d="M91.111,160.363L91.111,160.363c-3.412,0-6.177-2.766-6.177-6.177v-18.005h6.177
				V160.363z"/>
			<path id="XMLID_128_" style="fill:#FFA8A7;" d="M108.398,119.201c1.865,1.102,4.169,5.791,3.941,15.622
				c-0.193,8.332-2.893,10.39-4.249,10.983c-1.356,0.593-3.971,0.232-6.514-0.191v5c0,0,3.514,4.081,3.292,6.374
				c-0.221,2.293-5.074,2.835-8.362,0.595c-3.288-2.24-5.396-5.649-5.396-5.649v-12.087c0,0-1.716,2.292-4.524,0.428
				s-2.914-6.479-1.282-8.136c1.632-1.657,5.15-1.132,5.806,1.157c0,0,4.055,0.148,9.454-2.818
				C105.965,127.512,108.039,122.432,108.398,119.201z"/>
			<path id="XMLID_126_" style="fill:#263238;" d="M103.037,132.73c0.03,0.6-0.414,1.109-0.992,1.137
				c-0.578,0.027-1.071-0.437-1.101-1.037c-0.03-0.6,0.414-1.109,0.992-1.137C102.514,131.665,103.007,132.129,103.037,132.73z"/>
			<path id="XMLID_124_" style="fill:#F28F8F;" d="M103.317,139.792l2.433,0.776c-0.202,0.697-0.91,1.087-1.582,0.873
				C103.496,141.227,103.115,140.489,103.317,139.792z"/>
			<path id="XMLID_122_" style="fill:#263238;" d="M111.628,129.513l-2.12-1.469c0.387-0.605,1.175-0.767,1.761-0.361
				C111.854,128.088,112.014,128.907,111.628,129.513z"/>
			<path id="XMLID_120_" style="fill:#263238;" d="M111.139,131.973c0.03,0.6-0.414,1.109-0.992,1.136
				c-0.578,0.027-1.071-0.437-1.101-1.037c-0.03-0.6,0.414-1.109,0.992-1.137C110.616,130.908,111.109,131.372,111.139,131.973z"/>
			<polygon id="XMLID_102_" style="fill:#F28F8F;" points="106.196,131.372 106.363,137.679 109.682,136.651 			"/>
			<path id="XMLID_100_" style="fill:#F28F8F;" d="M101.576,145.615c-2.68-0.351-8.192-1.935-9.051-4.114
				c0,0,0.286,1.37,1.933,2.781c1.647,1.411,7.118,3.001,7.118,3.001V145.615z"/>
		</g>
		<g>
			<polygon id="XMLID_81_" style="fill:#27DEBF;" points="145.428,171.342 115.011,179.354 106.032,217.104 134.951,208.704 			"/>
			<path id="XMLID_79_" style="opacity:0.15;" d="M132.167,196.321c0.282,0.771,1.947,2.911,5.488,2.742l0.438-1.561
				L132.167,196.321z"/>
			<path id="XMLID_77_" style="opacity:0.15;" d="M125.369,197.502c-0.134,1.006-2.203,2.87-5.699,4.035
				c-3.978,1.326-10.084,0.625-10.084,0.625l0.547-1.878L125.369,197.502z"/>
			<path id="XMLID_75_" style="opacity:0.15;" d="M136.523,176.809c0,0,0.112-0.52,0.251-1.16c0.139-0.641-1.646-0.668-3.987-0.061
				l-4.481,1.162c-2.341,0.607-4.35,1.619-4.489,2.259l-0.251,1.16L136.523,176.809z"/>
			<g>
				<path id="XMLID_73_" style="fill:#37474F;" d="M138.632,172.432c0.088-0.4-0.635-0.505-1.615-0.235l-1.775,0.49
					c0,0,0.529-2.509-3.409-1.632c-3.938,0.877-4.799,3.726-4.799,3.726s-0.848,0.241-1.895,0.538
					c-1.046,0.297-1.995,0.861-2.119,1.26l-0.224,0.722l15.669-4.126C138.465,173.176,138.543,172.833,138.632,172.432z"/>
				<path id="XMLID_71_" style="fill:#37474F;" d="M136.474,173.685c-1.436,0.346-2.032,0.537-2.247,1.525
					c-0.245,1.128-0.345,1.956-0.345,1.956l-6.935,1.833c0,0,0.335-1.428,0.442-1.985c0.107-0.557-0.129-0.892-1.232-0.6
					l-0.093-0.442l10.867-2.767L136.474,173.685z"/>
				<path id="XMLID_69_" style="fill:#37474F;" d="M136.712,176.918c0,0,0.112-0.519,0.251-1.16
					c0.139-0.641-1.646-0.668-3.987-0.061l-4.481,1.162c-2.341,0.607-4.35,1.618-4.489,2.259l-0.251,1.16L136.712,176.918z"/>
			</g>
		</g>
		<path id="XMLID_67_" style="fill:#FFA8A7;" d="M72.241,196.765l9.319-7.479c0,0,20.593,3.668,23.013,3.859
			c2.42,0.19,5.107-1.519,6.03-3.894c0.923-2.376,2.548-2.08,2.548-2.08s-0.716,3.011-0.945,3.972
			c-0.229,0.962,5.571,1.751,8.788,0.662c3.217-1.089,7.873,0.492,4.989,4.872c-2.885,4.381-8.493,4.885-12.39,4.888
			c-1.077,0.001-2.991-0.081-4.872-0.326c-1.261-0.164-2.515-0.291-3.783-0.381C96.962,200.29,75.865,197.903,72.241,196.765z"/>
		<path id="XMLID_65_" style="fill:#FFA8A7;" d="M142.334,182.379c0,0-1.09,3.886-1.35,4.814c-0.26,0.927-3.797,2.612-6.033,3.226
			c-2.236,0.614-4.681,1.342-3.623,4.469c0.976,2.883,4.655,3.541,6.528,3.459c1.873-0.082,4.438-1.872,5.448-4.758
			c1.289-3.682,0.594-7.613,1.106-9.764S143.454,181.096,142.334,182.379z"/>
	</g>
</g>
</svg>
